<?xml version="1.0" encoding="UTF-8" standalone="no"?>
<svg
   version="1.0"
   width="13.193888mm"
   height="4.5155558mm"
   id="svg12"
   sodipodi:docname="swinxs.wmf"
   xmlns:inkscape="http://www.inkscape.org/namespaces/inkscape"
   xmlns:sodipodi="http://sodipodi.sourceforge.net/DTD/sodipodi-0.dtd"
   xmlns="http://www.w3.org/2000/svg"
   xmlns:svg="http://www.w3.org/2000/svg">
  <sodipodi:namedview
     id="namedview12"
     pagecolor="#ffffff"
     bordercolor="#000000"
     borderopacity="0.25"
     inkscape:showpageshadow="2"
     inkscape:pageopacity="0.0"
     inkscape:pagecheckerboard="0"
     inkscape:deskcolor="#d1d1d1"
     inkscape:document-units="mm" />
  <defs
     id="defs1">
    <pattern
       id="WMFhbasepattern"
       patternUnits="userSpaceOnUse"
       width="6"
       height="6"
       x="0"
       y="0" />
  </defs>
  <path
     style="fill:#44c0eb;fill-rule:evenodd;fill-opacity:1;stroke:none;"
     d="  M 13.2,4.0666667   L 13.2,3.8   L 13.066667,3.5333333   L 12.866667,3.3333333   L 12.666667,3.2666667   L 12.4,3.2666667   L 12.133333,3.4   L 12,3.6   L 11.866667,3.8   L 11.666667,4.8   L 11.6,5.0666667   L 11.4,5.3333333   L 11.2,5.5333333   L 10.933333,5.6666667   L 10,6.0666667   L 9.8,6.2   L 9.6666667,6.4666667   L 9.6,6.6666667   L 9.6,6.9333333   L 9.8,7.2   L 10,7.3333333   L 10.2,7.4   L 10.466667,7.3333333   L 11.466667,7   L 11.733333,7   L 12.066667,7   L 12.333333,7.0666667   L 12.6,7.2   L 13.4,7.8   L 13.6,7.9333333   L 13.866667,8   L 14.133333,7.8666667   L 14.333333,7.7333333   L 14.466667,7.4666667   L 14.466667,7.2666667   L 14.4,7   L 14.266667,6.8   L 13.466667,6.1333333   L 13.333333,5.8666667   L 13.133333,5.6   L 13.066667,5.3333333   L 13.066667,5  z "
     id="path1" />
  <path
     style="fill:#cbd300;fill-rule:evenodd;fill-opacity:1;stroke:none;"
     d="  M 14.666667,10.666667   L 14.733333,10.466667   L 14.733333,10.266667   L 14.666667,9.8666667   L 14.466667,9.5333333   L 14.333333,9.4   L 14.133333,9.3333333   L 13.933333,9.2666667   L 13.733333,9.2   L 13.333333,9.2666667   L 13,9.4666667   L 12.866667,9.6666667   L 12.733333,9.8   L 12.066667,11.2   L 11.8,11.6   L 11.4,11.933333   L 11,12.2   L 10.6,12.266667   L 9,12.466667   L 8.8,12.533333   L 8.6,12.6   L 8.3333333,12.866667   L 8.1333333,13.266667   L 8.1333333,13.466667   L 8.1333333,13.666667   L 8.1333333,13.866667   L 8.2,14.066667   L 8.4666667,14.333333   L 8.8,14.533333   L 9,14.6   L 9.2666667,14.6   L 10.8,14.466667   L 11.266667,14.533333   L 11.733333,14.666667   L 12.133333,14.933333   L 12.466667,15.266667   L 13.4,16.466667   L 13.533333,16.666667   L 13.733333,16.733333   L 14.066667,16.866667   L 14.466667,16.866667   L 14.666667,16.8   L 14.866667,16.733333   L 15,16.6   L 15.133333,16.4   L 15.266667,16   L 15.266667,15.6   L 15.2,15.4   L 15.133333,15.266667   L 14.266667,13.933333   L 14.066667,13.533333   L 13.933333,13.066667   L 13.933333,12.6   L 14.066667,12.133333  z "
     id="path2" />
  <path
     style="fill:#fcc000;fill-rule:evenodd;fill-opacity:1;stroke:none;"
     d="  M 4.2666667,4.2666667   L 4.2666667,4   L 4.2,3.7333333   L 4.0666667,3.5333333   L 3.8666667,3.4   L 3.6,3.3333333   L 3.3333333,3.4   L 3.1333333,3.5333333   L 3,3.8   L 2.6,4.7333333   L 2.4666667,4.9333333   L 2.2666667,5.2   L 2,5.3333333   L 1.7333333,5.4666667   L 0.73333333,5.6666667   L 0.46666667,5.8   L 0.33333333,5.9333333   L 0.2,6.2   L 0.2,6.4666667   L 0.26666667,6.7333333   L 0.46666667,6.8666667   L 0.73333333,7   L 1,7   L 1.9333333,6.8666667   L 2.2666667,6.8666667   L 2.5333333,6.9333333   L 2.8666667,7.0666667   L 3.0666667,7.2666667   L 3.7333333,8   L 3.9333333,8.2   L 4.2,8.2   L 4.4666667,8.2   L 4.6666667,8.0666667   L 4.8666667,7.8666667   L 4.9333333,7.6   L 4.8666667,7.3333333   L 4.8,7.1333333   L 4.1333333,6.3333333   L 4,6.0666667   L 3.9333333,5.8   L 3.8666667,5.4666667   L 3.9333333,5.2  z "
     id="path3" />
  <path
     style="fill:#2863a9;fill-rule:evenodd;fill-opacity:1;stroke:none;"
     d="  M 7.1333333,0.26666667   L 6.9333333,0.13333333   L 6.7333333,0   L 6.4666667,0   L 6.2,0.13333333   L 6,0.33333333   L 5.9333333,0.53333333   L 5.9333333,0.8   L 6,1.0666667   L 6.5333333,1.9333333   L 6.6666667,2.2   L 6.7333333,2.4666667   L 6.7333333,2.8   L 6.6,3.0666667   L 6.2,4   L 6.1333333,4.2666667   L 6.2,4.4666667   L 6.3333333,4.7333333   L 6.5333333,4.8666667   L 6.8,4.9333333   L 7.0666667,4.9333333   L 7.2666667,4.8   L 7.4666667,4.6   L 7.9333333,3.6666667   L 8.0666667,3.4666667   L 8.3333333,3.2666667   L 8.6,3.1333333   L 8.8666667,3.0666667   L 9.8666667,2.9333333   L 10.133333,2.8666667   L 10.333333,2.7333333   L 10.466667,2.4666667   L 10.466667,2.2   L 10.4,2   L 10.266667,1.7333333   L 10.066667,1.6   L 9.8,1.6   L 8.8,1.6   L 8.4666667,1.6   L 8.2,1.4666667   L 7.9333333,1.3333333   L 7.7333333,1.1333333  z "
     id="path4" />
  <path
     style="fill:#b17aae;fill-rule:evenodd;fill-opacity:1;stroke:none;"
     d="  M 7.7333333,7.3333333   L 7.6,7.1333333   L 7.4,6.9333333   L 7.1333333,6.9333333   L 6.8666667,6.9333333   L 6.6666667,7.0666667   L 6.5333333,7.2666667   L 6.4666667,7.5333333   L 6.4666667,7.8   L 6.8,8.7333333   L 6.8,9   L 6.8,9.3333333   L 6.7333333,9.6666667   L 6.5333333,9.8666667   L 5.9333333,10.666667   L 5.8,10.933333   L 5.8,11.133333   L 5.8666667,11.4   L 6,11.6   L 6.2666667,11.733333   L 6.5333333,11.8   L 6.7333333,11.733333   L 6.9333333,11.533333   L 7.6666667,10.8   L 7.8666667,10.6   L 8.1333333,10.466667   L 8.4666667,10.4   L 8.7333333,10.4   L 9.7333333,10.6   L 10,10.6   L 10.2,10.466667   L 10.4,10.266667   L 10.533333,10   L 10.533333,9.8   L 10.4,9.5333333   L 10.2,9.3333333   L 10,9.2666667   L 9,9   L 8.7333333,8.9333333   L 8.4666667,8.7333333   L 8.2666667,8.5333333   L 8.1333333,8.2666667  z "
     id="path5" />
  <path
     style="fill:#e95f40;fill-rule:evenodd;fill-opacity:1;stroke:none;"
     d="  M 3.6666667,10.2   L 3.6666667,9.9333333   L 3.5333333,9.7333333   L 3.3333333,9.5333333   L 3.0666667,9.4   L 2.8,9.4666667   L 2.6,9.5333333   L 2.4,9.7333333   L 2.3333333,10   L 2.1333333,10.933333   L 2,11.2   L 1.8,11.466667   L 1.6,11.666667   L 1.3333333,11.866667   L 0.4,12.2   L 0.2,12.333333   L 0.066666667,12.6   L 0,12.8   L 0.066666667,13.066667   L 0.2,13.333333   L 0.4,13.466667   L 0.6,13.533333   L 0.86666667,13.466667   L 1.8666667,13.2   L 2.1333333,13.133333   L 2.4666667,13.133333   L 2.7333333,13.266667   L 3,13.4   L 3.8,14   L 4,14.133333   L 4.2666667,14.133333   L 4.5333333,14.066667   L 4.7333333,13.933333   L 4.8666667,13.666667   L 4.8666667,13.4   L 4.8,13.133333   L 4.6666667,12.933333   L 3.9333333,12.266667   L 3.7333333,12.066667   L 3.6,11.8   L 3.5333333,11.466667   L 3.5333333,11.2  z "
     id="path6" />
  <path
     style="fill:#6f7072;fill-rule:evenodd;fill-opacity:1;stroke:none;"
     d="  M 31.733333,10.6   L 32,10.6   L 32.2,10.8   L 32.333333,11   L 32.4,11.266667   L 32.4,14.866667   L 32.333333,15.133333   L 32.2,15.333333   L 32,15.466667   L 31.733333,15.533333   L 31.466667,15.466667   L 31.2,15.333333   L 31.066667,15.133333   L 31,14.866667   L 31,11.266667   L 31.066667,11   L 31.2,10.8   L 31.466667,10.6   L 31.733333,10.6  z "
     id="path7" />
  <path
     style="fill:#6f7072;fill-rule:evenodd;fill-opacity:1;stroke:none;"
     d="  M 35.8,11.933333   L 35.2,11.933333   L 35.066667,11.933333   L 34.933333,12   L 34.866667,12.133333   L 34.8,12.266667   L 34.8,14.866667   L 34.733333,15.133333   L 34.6,15.333333   L 34.4,15.466667   L 34.066667,15.533333   L 33.8,15.466667   L 33.6,15.333333   L 33.466667,15.133333   L 33.4,14.866667   L 33.4,11.666667   L 33.4,11.4   L 33.466667,11.2   L 33.6,11.066667   L 33.733333,10.866667   L 33.866667,10.733333   L 34.066667,10.666667   L 34.266667,10.6   L 34.533333,10.6   L 35.8,10.6   L 37.133333,10.6   L 37.333333,10.6   L 37.533333,10.666667   L 37.733333,10.733333   L 37.933333,10.866667   L 38.066667,11.066667   L 38.133333,11.2   L 38.2,11.4   L 38.266667,11.666667   L 38.266667,14.866667   L 38.2,15.133333   L 38,15.333333   L 37.8,15.466667   L 37.533333,15.533333   L 37.266667,15.466667   L 37,15.333333   L 36.866667,15.133333   L 36.8,14.866667   L 36.8,12.266667   L 36.8,12.133333   L 36.733333,12   L 36.6,11.933333   L 36.4,11.933333   L 35.8,11.933333  z "
     id="path8" />
  <path
     style="fill:#6f7072;fill-rule:evenodd;fill-opacity:1;stroke:none;"
     d="  M 41.333333,13.666667   L 41.066667,13.8   L 40.933333,14   L 40.333333,15.133333   L 40.133333,15.4   L 39.933333,15.533333   L 39.666667,15.533333   L 39.4,15.466667   L 39.2,15.333333   L 39.066667,15.066667   L 39,14.8   L 39.066667,14.6   L 39.6,13.333333   L 39.733333,13.133333   L 39.733333,13   L 39.733333,12.933333   L 39.6,12.733333   L 39.066667,11.466667   L 39,11.266667   L 39.066667,11   L 39.2,10.733333   L 39.4,10.6   L 39.666667,10.533333   L 39.933333,10.533333   L 40.133333,10.666667   L 40.333333,10.933333   L 40.866667,12.066667   L 41.066667,12.266667   L 41.2,12.333333   L 41.333333,12.333333   L 41.666667,12.333333   L 41.8,12.333333   L 41.933333,12.266667   L 42.066667,12.066667   L 42.666667,10.933333   L 42.8,10.666667   L 43,10.533333   L 43.266667,10.533333   L 43.533333,10.6   L 43.8,10.733333   L 43.933333,11   L 44,11.266667   L 43.933333,11.466667   L 43.333333,12.733333   L 43.266667,12.933333   L 43.266667,13   L 43.266667,13.133333   L 43.333333,13.333333   L 43.933333,14.6   L 44,14.8   L 43.933333,15.066667   L 43.8,15.333333   L 43.533333,15.466667   L 43.266667,15.533333   L 43,15.533333   L 42.8,15.4   L 42.666667,15.133333   L 42.066667,14   L 41.866667,13.8   L 41.666667,13.666667   L 41.333333,13.666667  z "
     id="path9" />
  <path
     style="fill:#6f7072;fill-rule:evenodd;fill-opacity:1;stroke:none;"
     d="  M 19.133333,11.866667   L 19.066667,11.933333   L 18.933333,12   L 18.866667,12.066667   L 18.866667,12.2   L 18.866667,12.266667   L 18.933333,12.4   L 19.066667,12.466667   L 19.133333,12.466667   L 21.466667,12.466667   L 21.733333,12.533333   L 21.933333,12.533333   L 22.266667,12.8   L 22.4,12.933333   L 22.533333,13.133333   L 22.533333,13.266667   L 22.6,13.533333   L 22.6,14.2   L 22.533333,14.466667   L 22.466667,14.666667   L 22.333333,14.933333   L 22.2,15.066667   L 22,15.266667   L 21.733333,15.333333   L 21.533333,15.466667   L 21.266667,15.466667   L 18.2,15.466667   L 17.933333,15.4   L 17.733333,15.266667   L 17.6,15.066667   L 17.533333,14.8   L 17.6,14.533333   L 17.733333,14.333333   L 17.933333,14.2   L 18.2,14.2   L 20.933333,14.2   L 21.066667,14.133333   L 21.133333,14.066667   L 21.2,14   L 21.266667,13.866667   L 21.2,13.8   L 21.133333,13.666667   L 21.066667,13.6   L 20.933333,13.6   L 18.6,13.6   L 18.4,13.6   L 18.2,13.533333   L 17.866667,13.266667   L 17.6,12.933333   L 17.533333,12.8   L 17.533333,12.533333   L 17.533333,11.866667   L 17.533333,11.6   L 17.6,11.333333   L 17.733333,11.133333   L 17.933333,10.933333   L 18.133333,10.8   L 18.333333,10.666667   L 18.6,10.6   L 18.866667,10.6   L 21.733333,10.6   L 22,10.666667   L 22.2,10.8   L 22.333333,11   L 22.4,11.2   L 22.333333,11.466667   L 22.2,11.666667   L 22,11.8   L 21.733333,11.866667   L 19.133333,11.866667  z "
     id="path10" />
  <path
     style="fill:#6f7072;fill-rule:evenodd;fill-opacity:1;stroke:none;"
     d="  M 46.333333,11.866667   L 46.2,11.933333   L 46.133333,12   L 46.066667,12.066667   L 46,12.2   L 46.066667,12.266667   L 46.133333,12.4   L 46.2,12.466667   L 46.333333,12.466667   L 48.666667,12.466667   L 48.866667,12.533333   L 49.066667,12.533333   L 49.4,12.8   L 49.533333,12.933333   L 49.666667,13.133333   L 49.733333,13.266667   L 49.733333,13.533333   L 49.733333,14.2   L 49.733333,14.466667   L 49.666667,14.666667   L 49.533333,14.933333   L 49.333333,15.066667   L 49.133333,15.266667   L 48.933333,15.333333   L 48.666667,15.466667   L 48.4,15.466667   L 45.333333,15.466667   L 45.066667,15.4   L 44.866667,15.266667   L 44.733333,15.066667   L 44.666667,14.8   L 44.733333,14.533333   L 44.866667,14.333333   L 45.066667,14.2   L 45.333333,14.2   L 48.133333,14.2   L 48.266667,14.133333   L 48.333333,14.066667   L 48.4,14   L 48.4,13.866667   L 48.4,13.8   L 48.333333,13.666667   L 48.266667,13.6   L 48.133333,13.6   L 45.8,13.6   L 45.533333,13.6   L 45.333333,13.533333   L 45,13.266667   L 44.733333,12.933333   L 44.733333,12.8   L 44.666667,12.533333   L 44.666667,11.866667   L 44.733333,11.6   L 44.8,11.333333   L 44.933333,11.133333   L 45.066667,10.933333   L 45.266667,10.8   L 45.533333,10.666667   L 45.733333,10.6   L 46.066667,10.6   L 48.933333,10.6   L 49.133333,10.666667   L 49.4,10.8   L 49.533333,11   L 49.533333,11.2   L 49.533333,11.466667   L 49.4,11.666667   L 49.133333,11.8   L 48.933333,11.866667   L 46.333333,11.866667  z "
     id="path11" />
  <path
     style="fill:#6f7072;fill-rule:evenodd;fill-opacity:1;stroke:none;"
     d="  M 27.466667,13.8   L 27.466667,13.933333   L 27.533333,14   L 27.6,14.066667   L 27.733333,14.133333   L 27.866667,14.133333   L 28,14.066667   L 28.066667,13.933333   L 28.133333,13.866667   L 29,11   L 29.133333,10.8   L 29.266667,10.666667   L 29.466667,10.533333   L 29.666667,10.533333   L 30,10.6   L 30.2,10.733333   L 30.333333,10.933333   L 30.4,11.2   L 30.4,11.4   L 29.333333,14.733333   L 29.2,15   L 28.933333,15.266667   L 28.666667,15.4   L 28.266667,15.466667   L 25.2,15.466667   L 24.8,15.4   L 24.533333,15.266667   L 24.266667,15   L 24.133333,14.733333   L 23.133333,11.4   L 23.066667,11.2   L 23.133333,10.933333   L 23.266667,10.733333   L 23.533333,10.6   L 23.8,10.533333   L 24,10.533333   L 24.2,10.666667   L 24.333333,10.8   L 24.466667,11   L 25.333333,13.866667   L 25.4,13.933333   L 25.466667,14.066667   L 25.6,14.133333   L 25.733333,14.133333   L 25.866667,14.066667   L 25.933333,14   L 26,13.933333   L 26,13.8   L 26,11.933333   L 26.066667,11.666667   L 26.266667,11.466667   L 26.466667,11.333333   L 26.733333,11.266667   L 27,11.333333   L 27.266667,11.466667   L 27.4,11.666667   L 27.466667,11.933333   L 27.466667,13.8  z "
     id="path12" />
</svg>
